# xmcd CD database file
#
# Track frame offsets:
#	150
#	26940
#	77325
#	104362
#	132187
#	171772
#
# Disc length: 2562 seconds
#
# Revision: 0
# Processed by: cddbd v1.5.2PL0 Copyright (c) Steve Scherf et al.
# Submitted via: CDex 2.13
#
DISCID=430a0006
DTITLE=Bram Weijters' Crazy Men - Here they come
DYEAR=2019
DGENRE=Jazz
TTITLE0=And here comes the crazy man
TTITLE1=Pathetic dreams
TTITLE2=Only nineteen
TTITLE3=Open air
TTITLE4=Unanswered questions (live)
TTITLE5=Games (live)
EXTD=YEAR: 2019
EXTT0=
EXTT1=
EXTT2=
EXTT3=
EXTT4=
EXTT5=
PLAYORDER=
